<?xml version="1.0" encoding="UTF-8"?>
<svg xmlns="http://www.w3.org/2000/svg" xmlns:xlink="http://www.w3.org/1999/xlink" width="30px" height="30px" viewBox="0 0 30 30" version="1.1">
<g id="surface1">
<path style=" stroke:none;fill-rule:nonzero;fill:rgb(0%,0%,0%);fill-opacity:1;" d="M 29.378906 15.050781 C 29.210938 14.53125 28.652344 14.246094 28.132812 14.417969 L 26.808594 14.851562 C 26.660156 14.058594 26.445312 13.257812 26.167969 12.460938 C 28.441406 11.578125 30 9.375 30 6.851562 C 30 0.859375 22.15625 -1.421875 18.929688 3.578125 C 16.453125 2.359375 13.734375 2.269531 11.070312 3.578125 C 7.835938 -1.429688 0 0.867188 0 6.851562 C 0 9.375 1.558594 11.578125 3.832031 12.460938 C 3.558594 13.257812 3.339844 14.058594 3.191406 14.851562 L 1.867188 14.417969 C 1.347656 14.246094 0.789062 14.53125 0.621094 15.050781 C 0.449219 15.566406 0.734375 16.125 1.253906 16.296875 L 2.957031 16.855469 C 2.902344 18.15625 3.03125 19.46875 3.476562 20.710938 L 1.285156 21.34375 C 0.761719 21.496094 0.460938 22.042969 0.609375 22.566406 C 0.761719 23.09375 1.308594 23.394531 1.835938 23.242188 L 4.40625 22.5 C 6.132812 24.949219 9.09375 25.988281 12.058594 26.355469 L 12.058594 28.175781 C 12.058594 28.722656 12.5 29.164062 13.046875 29.164062 L 16.953125 29.164062 C 17.5 29.164062 17.941406 28.722656 17.941406 28.175781 L 17.941406 26.355469 C 20.90625 25.988281 23.867188 24.949219 25.59375 22.5 L 28.164062 23.242188 C 28.691406 23.394531 29.238281 23.09375 29.390625 22.566406 C 29.539062 22.042969 29.238281 21.496094 28.714844 21.34375 L 26.523438 20.710938 C 26.964844 19.488281 27.101562 18.179688 27.042969 16.855469 L 28.746094 16.296875 C 29.265625 16.125 29.546875 15.566406 29.378906 15.050781 Z M 28.023438 6.851562 C 28.023438 8.558594 26.964844 10.046875 25.417969 10.628906 C 24.3125 8.308594 22.652344 6.109375 20.617188 4.609375 C 22.816406 1.296875 28.023438 2.859375 28.023438 6.851562 Z M 1.976562 6.851562 C 1.976562 2.851562 7.1875 1.308594 9.378906 4.605469 C 7.332031 6.113281 5.675781 8.324219 4.582031 10.628906 C 3.035156 10.046875 1.976562 8.558594 1.976562 6.851562 Z M 15 21.730469 L 12.894531 19.523438 L 17.105469 19.523438 Z M 14.035156 27.1875 L 14.035156 26.507812 C 14.675781 26.53125 15.324219 26.53125 15.964844 26.507812 L 15.964844 27.1875 Z M 24.617188 20.160156 L 22.179688 19.457031 C 21.65625 19.304688 21.105469 19.609375 20.957031 20.132812 C 20.804688 20.65625 21.105469 21.207031 21.632812 21.355469 L 23.539062 21.90625 C 21.738281 23.859375 18.632812 24.425781 15.988281 24.527344 L 15.988281 23.558594 L 19 20.402344 C 20.023438 19.332031 19.261719 17.546875 17.777344 17.546875 L 12.222656 17.546875 C 10.742188 17.546875 9.976562 19.328125 11 20.402344 L 14.011719 23.558594 L 14.011719 24.527344 C 11.371094 24.425781 8.261719 23.859375 6.460938 21.90625 L 8.367188 21.355469 C 8.894531 21.207031 9.195312 20.65625 9.042969 20.132812 C 8.894531 19.609375 8.34375 19.304688 7.820312 19.457031 L 5.382812 20.160156 C 5.082031 19.386719 4.929688 18.5 4.921875 17.496094 L 7.785156 18.433594 C 8.308594 18.605469 8.863281 18.320312 9.035156 17.804688 C 9.203125 17.285156 8.921875 16.726562 8.402344 16.554688 L 5.089844 15.472656 C 5.261719 14.441406 5.570312 13.351562 6.042969 12.210938 C 10.855469 1.5 20 2.742188 23.945312 12.183594 C 24.421875 13.324219 24.738281 14.433594 24.910156 15.472656 L 21.597656 16.554688 C 21.078125 16.726562 20.796875 17.285156 20.964844 17.804688 C 21.136719 18.320312 21.691406 18.605469 22.210938 18.433594 L 25.078125 17.496094 C 25.070312 18.5 24.917969 19.386719 24.617188 20.160156 Z M 11.292969 13.074219 C 11.292969 12.351562 10.707031 11.765625 9.984375 11.765625 C 9.261719 11.765625 8.675781 12.351562 8.675781 13.070312 C 8.675781 13.792969 9.261719 14.378906 9.984375 14.378906 C 10.707031 14.382812 11.292969 13.796875 11.292969 13.074219 Z M 21.273438 13.082031 C 21.273438 12.359375 20.6875 11.773438 19.964844 11.773438 C 19.242188 11.773438 18.65625 12.359375 18.65625 13.082031 C 18.65625 13.800781 19.242188 14.386719 19.964844 14.390625 C 20.683594 14.390625 21.269531 13.804688 21.273438 13.082031 Z M 21.273438 13.082031 "/>
</g>
</svg>
